<?xml version="1.0" encoding="utf-8"?>
<!-- Generator: Adobe Illustrator 26.5.0, SVG Export Plug-In . SVG Version: 6.00 Build 0)  -->
<svg version="1.1" id="katman_1" xmlns="http://www.w3.org/2000/svg" xmlns:xlink="http://www.w3.org/1999/xlink" x="0px" y="0px"
	 viewBox="0 0 1440 447" style="enable-background:new 0 0 1440 447;" xml:space="preserve">
<style type="text/css">
	.st0{display:none;}
</style>
<path d="M1143,55c10.9,4.3,22.2,8,32.6,13.3c4.5,2.2,8.5,3.5,13.3,4c2.6,0.3,5.1,2.2,7.6,3.4c3.4,1.8,6.6,4.4,10.2,5.3
	c7.6,1.9,12.7,7.2,17.7,12.3c1.6,1.7,1.6,5.3,1.6,8c0,4.6,0.6,8.7,5.6,10.5c0.6,0.2,1.2,0.7,1.6,1.2c8,9.7,19,11.4,30.5,10.8
	c14.3-0.8,27.3,2.7,39.7,9.6c5.6,3.1,5.3,3.1,2.1,8.2c-1.1,1.8-0.7,5,0,7.3c0.7,2.7,2.4,5.2,3.7,7.8c-0.3,0.4-0.7,0.9-1,1.3
	c-2.2-0.4-4.3-0.7-6.5-1.1c-3.1-0.6-6.2-1.8-9.2-1.7c-1.8,0.1-4.7,2-4.9,3.4c-0.2,1.6,1.7,4.3,3.3,5.1c3.4,1.7,7.2,2.4,10.9,3.5
	c1.3,0.4,3.1,0.6,3.6,1.5c4.6,7.8,13.7,10.6,19.2,17.3c1.1,1.4,1.6,3.3,2.4,4.9c0.8,1.4,1.6,2.9,2.7,4.1c3.4,3.9,7.5,7.4,10.3,11.7
	c2.1,3.2,4.6,4.5,8.1,4.8c5.8,0.4,8.4,2.6,8.8,8.3c0.3,4.6,0.2,9.3-0.2,13.9c-0.4,5.1,1.7,8.3,6.8,8.2c4.7-0.1,8.2,1.6,12,3.9
	c2.8,1.7,6.3,2.7,9.6,3.3c5.4,1.1,9.2,3.1,12.5,8.3c4.6,7.2,9.4,14.7,19.2,17.5c6.9,2,15.7,4.4,16.1,15.3c-1.2,0.2-2.6,0.7-3.9,0.6
	c-7-0.5-12.5,2.6-17.2,7.4c-3.3,3.4-4.7,3.5-7.9-0.2c-3.8-4.4-7.5-8.9-11.6-13c-1.7-1.7-4.1-2.9-6.4-3.5c-3.8-1.1-7.8-1.6-11.7-2.2
	c-3.9-0.6-7.7-0.6-9.9,3.8c-0.4,0.8-2.2,1.5-3.3,1.4c-13.4-0.7-26.8-0.7-39.8-5.5c-7.5-2.8-15.8-3.6-23.8-5.2
	c-1.4-0.3-3.3-0.3-4.3,0.5c-5.1,3.7-9.2,0.8-13.8-1.2c-7.5-3.3-15.3-6.2-23.1-8.8c-6.1-2-12.4-3.3-18.7-5c-3.8-1-7.7-1.8-11.5-3
	c-7.3-2.4-11.6-8.1-15-14.6c-3.2-6-6.3-12.1-9.7-18.1c-2.8-4.9-6.5-8.7-12.3-10.2c-6.9-1.8-13.7-4-20.5-5.7
	c-3.5-0.9-7.2-1.2-10.8-1.5c-10.2-0.8-20.5-1.1-30.7-2.4c-3.9-0.5-7.5-3.7-11.4-4.4c-7.6-1.4-15.1-2.6-23-1.9
	c-7.7,0.6-15.8-0.9-23.5-2.6c-6.3-1.4-11.3-1.4-15.6,4c-7,8.7-17.7,10.9-27.3,14.6c-5,1.9-11,1.4-16.5,2.1c-13,1.5-25.9,3-38.9,4.6
	c-3.7,0.5-7.3,1.6-11,2.3c-9.6,2-19.1,6.2-29.1,1.1c-2-1-4.5-1.2-6.8-1.4c-10.2-0.9-20.4-2.2-29.9,3.9c-2.7,1.7-6.7,1.7-10.1,1.9
	c-3.5,0.3-7.2-0.1-5.7,6.9c-5.4-1.9-9.5-3.2-13.5-4.7c-1.7-0.6-3.3-1.8-5-2c-11.5-1.5-23-2.7-34.5-4.3c-2-0.3-4.9-1.9-5.4-3.4
	c-3.6-11.5-13.5-16.4-22.6-22.2c-2.5-1.6-5.1-3.1-7.9-4.8c5.3-3.2,10.1-6.2,15-9.1c2.8-1.7,5.7-3.5,8.7-4.8
	c3.6-1.5,7.5-2.3,11.1-3.9c6.3-2.7,12.6-5.7,18.8-8.5c3-1.4,5.8-2.8,8.8-4.2c6.5-2.9,12.8-6.4,19.5-8.7c15.2-5.2,30.7-9.6,45.9-14.9
	c3.6-1.3,7.4-4.1,9.5-7.2c3.3-5.1,5.6-6.8,11.9-6.3c10.4,0.8,20.8,1.3,31.2,1.9c9.2,0.6,18.5,1.3,27.7,1.9c3.6,0.3,6.1-0.9,8.5-4
	c4.7-6.3,15.1-8,21.7-3.6c5.9,3.9,12.2,4.5,18.7,3.4c9.3-1.6,18.6-3.7,27.7-6.2c3-0.8,6.2-3,7.9-5.6c2.9-4.3,6.6-6.1,11.3-5.9
	c5.4,0.3,10.8,1.8,16.2,1.7c7.4-0.1,14.8-0.9,22.2-2.1c1.8-0.3,3.8-2.7,4.4-4.6c0.4-1.2-0.9-4-2.3-4.8c-5-3.2-5.3-8.7-6.6-13.5
	c-0.4-1.6,1.2-3.9,2.4-5.5c0.7-1,2.2-1.4,3.4-2c8.2-4.3,8.3-5.1,1.6-11c-1.7-1.5-3.2-3.3-4.6-4.8c1.3-2.3,2.6-4.3,3.8-6.4
	C1137,55,1140,55,1143,55z"/>
<path d="M1013,317c-1.3,0-2.7,0-4,0c-1.4-0.9-2.7-2.5-4.2-2.6c-5.8-0.7-11.6-1.4-17.3-1.2c-8.1,0.4-15.2-1.3-22.2-5.6
	c-12-7.4-25-12.8-39.6-11.5c-2.4,0.2-5.2,0.5-7.1,1.8c-7.7,5.7-16.9,7.1-25.7,8.7c-8,1.4-15.7,2.8-22.6,7c-0.9,0.6-2.2,1-3.2,0.9
	c-7.4-0.5-14.8-1.3-22.2-1.9c-6-0.5-7.8-2.3-7.9-8.3c0-3.5,0-7,0-10.5c0-8,7.7-17.9,15.4-19.9c5.9-1.6,12-2.9,17.8-4.7
	c2.6-0.8,5.6-2.2,7.1-4.2c4.8-6.4,11.2-11.8,10.2-21.7c-0.7-7.4-0.4-8.5-8-9.2c-1.9-0.2-3.8-1.1-5.6-1.7c0.1-0.7,0.2-1.4,0.3-2.1
	c2.7-0.4,5.4-0.6,8-1.4c6-1.7,11.9-3.7,17.9-5.5c3.2-0.9,6.6-2.1,9.8-2.1c5.3,0.1,10.5,1,15.8,1.7c2.1,0.3,4.4,0.6,6.2,1.7
	c8.2,4.6,15.8,0.5,23.7-1c3.2-0.6,6.2-2.2,9.3-2.6c13.4-1.6,26.9-2.9,40.4-4.4c2.6-0.3,5-1.8,7.6-2.3c2.4-0.5,4.8-0.4,7.3-0.6
	c2-0.1,4.2,0.6,5.8-0.2c7.6-3.6,16.4-5.4,21.9-12.1c5.6-6.9,11.9-8.3,19.8-5.9c0.9,0.3,1.9,0.5,2.9,0.7c6.4,0.8,13.1,3,19.2,1.9
	c10.1-1.9,19.3,0.9,28.8,2.7c3.3,0.6,6.2,3.5,9.5,3.9c10.2,1.1,20.6,1.3,30.8,2.4c6.5,0.7,13,2.5,19.4,4c3.1,0.7,6,2.2,9,2.6
	c6.4,0.8,10.5,4.4,13.4,9.9c3.7,7.1,7.3,14.2,11.6,20.9c3.9,6.3,9.2,11.6,16.6,13.7c8.4,2.4,16.9,5.4,25.6,6.2
	c8.9,0.8,15.9,5.4,23.6,8.6c0,0.3,0,0.7,0,1c-8.5-0.3-10.6,1-12.6,9.3c-1.2,4.9-4.6,6.7-8.7,6.6c-4.7-0.1-10.2,1.3-13.2-4.4
	c-3.1-6-9.2-7.9-15.1-4.5c-2,1.1-3.8,3-5.9,3.7c-3.8,1.4-7.7,2.5-11.7,3.1c-3.9,0.6-7.9,0.1-11.8,0.7c-7,1.1-14,2.7-21,3.9
	c-1.8,0.3-3.6,0.2-5.4,0c-10.2-1.2-20.3-2.5-30.5-3.6c-12.3-1.5-24.5-0.8-36.6,2.4c-4.9,1.3-9.7,1.8-12.5,6.9
	c-0.9,1.5-3,2.7-4.8,3.4c-8.1,2.9-16.2,6.5-24.6,8c-13.7,2.4-27.7,3.1-41.6,4.8C1018.8,314.6,1015.9,316,1013,317z"/>
<path d="M1137,68c0,1.7,0,3.3,0,5c-2.5,1.6-5.1,3.1-7.6,4.7c-6.1,3.8-5.9,14.2,0.6,17.5c4.4,2.2,3,5.8,2.6,9.1
	c-0.4,3.1-2.5,4.4-5.7,4.3c-3.1-0.1-6.3,0.3-9.4,0.3c-7.2,0-14.6,0.6-21.7-0.4c-7.8-1.1-12.6,0.3-17.2,6.6c-1.5,2-3.9,3.8-6.2,4.6
	c-13.7,4.1-27.6,7.2-42.1,6.3c-2.2-0.1-4.7-0.7-6.5-1.9c-8.3-5.2-14-5-20.9,1.9c-3.1,3.1-6.5,4.3-10.7,4.1
	c-14.4-0.8-28.8-1.3-43.2-2.1c-5.3-0.3-10.5-1.2-15.8-1.5c-2.1-0.1-4.2,0.8-6.3,0.8c-1.6,0-4.1-0.2-4.7-1.2c-2.5-3.8-5.6-5.3-10.1-5
	c-6,0.3-11-2.1-16.2-5.3c-7-4.3-14.6-9.1-23.5-3.7c-1.7,1-4.2,1.3-6.3,1.1c-7.2-0.6-14.4-1.6-21.5-2.5c-1.4-0.2-2.8-1-4.1-1.7
	c-11.4-6.4-23.1-0.6-34.7-1.2c-0.2,0-0.3,0.1-0.5,0.2c-6.9,5.5-15,5.4-23.2,5.5c-3.5,0-7.5,1.5-10.4,3.6c-8,5.6-16,9.1-25.3,3.1
	c-0.7-0.4-1.6-0.6-2.4-0.7c-9.4-1.9-18.8-4.5-28.4-5.6c-7.5-0.9-11.2-4.7-13.6-11.2c-0.7-1.9-2.6-4.5-4.4-4.9
	c-9.2-1.8-18.6-3.1-27.9-4.4c-2-0.3-4,0-6-0.2c-2.7-0.2-3.8-1.9-2.1-4c2.2-3,5-5.6,7.6-8.3c1.4-1.4,2.9-2.6,5.1-4.5
	c-12.5-4.4-23.9-3.7-35.2-2.1c-7.2,1-13.9,1.4-21-1.5c-6.7-2.7-13.5-4.3-20.6,1c-8.6,6.4-18.8,8.7-29.8,7.8
	c-7.3-0.6-14.7-0.6-22,0.1c-4.5,0.4-8.9,2.1-13.2,3.7c-8,3-16.1,5.5-24.7,3.1c-9.7-2.7-19.6,0.8-25.8,9c-0.9,1.2-3.2,2-4.7,1.9
	c-9.9-0.6-19.8-1.9-29.8-2.3c-9.5-0.4-19.1-0.3-28.7,0c-9.4,0.3-18.9,2-28.1-1.7c-4.9-2-9.6-2.4-14.2,1c-1.3,1-3.5,0.8-5.2,1.2
	c0-1,0-2,0-3c4.9-3.4,9.8-6.8,14.8-10.1c3.1-2.1,6.1-5.2,9.5-5.8c16.1-3.3,27.4-12.9,36.5-25.8c1.9-2.8,3.9-4,7.3-4
	c5.8-0.1,11.7-0.4,17.3-1.4c2.9-0.5,5.4-2.9,8-4.5c2-1.2,3.9-3,6.1-3.5c15-3.1,30.3-4.9,44.9-9.2c13.7-4.1,27.5-6.1,41.6-7.1
	c10-0.8,20-2.9,30-4.5c4.3,0,8.7,0,13,0c7.9,0.8,15.8,1.8,23.8,2.4c16,1,32.1,1.8,48.2,2.6c4.8,0.2,8.8-1.5,12-4.9c0.3,0,0.7,0,1,0
	c4.3,1.5,8.1,3.1,10.7,7.5c1.8,2.9,4.8,5.9,7.9,7.1c10.2,3.7,20.8,5.9,31.8,2.7c2.2-0.6,4.8-1.2,6.9-0.6c3.2,0.9,7.5,2,8.8,4.4
	c6.3,11.9,17.9,16.5,29.6,11c0.9-0.4,2-1,2.8-0.8c8.2,1.4,17.1,0.6,23.8,7.3c1.4,1.4,3.8,1.9,5.8,2.4c7.5,1.8,15.1,3.7,22.7,5.2
	c1.9,0.4,4.5,0.3,6-0.7c4.5-3,8.2-1.9,12.3,0.9c2.8,1.9,6.2,3,9.6,3.7c4.4,1,8.9,1.5,13.4,1.7c10.8,0.4,21.6,1.1,32.3,0.7
	c13.7-0.6,27.3-2.4,41-3.4c2.4-0.2,4.9,0.8,7.2,1.4c2.6,0.7,5,1.8,7.7,2.2c10.1,1.7,20.3,3.3,30.5,4.7c2.1,0.3,4.3-0.2,6.4-0.7
	c10.4-2.5,20.6-5.9,31.1-7.4c12.1-1.7,23.1-5.9,33.9-11.1c1.6-0.8,3.6-1.2,5.3-1.1c7.1,0.5,13.9,2.2,21.5,0.6
	c6.6-1.4,14.1,1.1,21.2,1.9c4.2,0.5,8.5,0.9,12,1.3C1130.6,62,1133.8,65,1137,68z"/>
<path d="M926,129c-1.7,8.6-7.3,10.8-15.6,12.8c-15.7,3.8-30.9,9.6-46,15.6c-10,4-19.3,9.9-29.1,14.5c-4.9,2.3-10.3,3.3-15.4,5.2
	c-3.3,1.2-6.6,2.9-9.7,4.6c-7,3.7-13.9,7.6-20.8,11.4c-0.6,0.3-1.4,1.1-1.4,1.7c-0.2,3.5-2.7,2.6-4.3,2c-6.4-2.3-12.1-0.6-18.3,1.5
	c-10.9,3.6-21.8,8-33.8,7.2c-5.3-0.3-10.6,0.9-15.9,0.8c-3-0.1-6.4-0.7-8.9-2.2c-7-4.2-14.5-3.9-21.1-1.1
	c-6.6,2.8-12.2,7.9-18.1,12.1c-8.9,6.3-16.4,14.3-26.5,19.2c-8.7,4.2-17,8.3-26.7,10.4c-6.7,1.4-12.7,6.3-19,9.5
	c-3.1,1.6-6.2,3.5-9.5,4c-7.5,1.2-13.5,5-19.5,9.2c-6.2,4.4-12.8,8.2-19.5,12c-4.2,2.4-8.6,1.4-13-0.4c-11.4-4.5-22.5-9.5-33.1-15.9
	c-4.8-2.9-11-3.7-16.6-5.2c-4.5-1.1-9.1-2-13.7-2.6c-3.8-0.5-6.1-2.5-6.8-6.2c-1.4-7-1.9-14.3-4.2-20.9c-1.5-4.4-5.1-8.5-8.8-11.5
	c-7.4-6.1-15.2-11.2-21.2-19.2c-7.2-9.8-16.2-18.3-24.6-27.1c-1.7-1.8-4.4-2.7-7.3-4.3c3.7-2.7,7-5.4,10.6-7.6
	c5.6-3.4,11.3-6.5,17.2-9.4c2.1-1,4.8-1.2,7.3-1.2c3.6-0.1,5-2.4,4.6-5.1c-0.3-1.6-2.6-3.1-4.3-4.2c-1.7-1.2-3.8-1.7-5.6-2.8
	c-5.9-3.6-11.8-7.4-17.7-11c-0.7-0.4-1.6-0.6-2.2-1.1c-9.8-8.6-22.4-12-33.6-18c-1-0.6-2.2-0.9-3-1.7c-0.9-0.9-2.1-2.3-1.9-3.1
	c0.4-1.2,1.8-2.2,3-3c2-1.3,4.1-2.9,6.3-3.2c4.2-0.6,9.1-1.7,12.8-0.3c9.8,3.6,19.3,2.7,29.4,1.5c9.1-1.1,18.6-0.5,27.8,0.1
	c10,0.6,20,2.1,30,3c1.2,0.1,3.5-0.9,3.6-1.8c1.8-7.8,9.1-7.5,14.4-9.6c3.4-1.3,8-0.6,11.8,0.4c9.2,2.3,17.6,0.6,25.8-3.7
	c3.1-1.6,6.8-2.9,10.3-3.1c7.1-0.5,14.4-0.6,21.5,0c11.2,0.8,21.8-0.6,30.7-7.6c8.3-6.4,16.5-3.6,24.5-0.8
	c6.3,2.2,12.1,1.8,18.5,1.3c10.4-0.8,20.8-0.1,31.3,0.4c1.6,0.1,3,2.4,4.5,3.7c-1.4,1.4-2.5,3.4-4.2,4.1c-4.7,1.8-5.8,5.9-7.4,10.3
	c1.4,0.2,2.5,0.6,3.6,0.4c11.2-1.5,21.7,2.2,32.4,4.6c1.9,0.4,3.9,2.9,4.7,5c2.5,6.1,5.9,10,13.3,10.8c10,1.1,19.8,3.8,29.6,6.1
	c2.7,0.6,4.9,3,7.6,3.4c5.9,0.9,11.4-1.3,15.5-5.4c3.3-3.3,6.6-4.8,11-4.5c1.8,0.1,3.7-0.2,5.5,0c5.7,0.6,10.7-0.7,15.4-4.3
	c4.2-3.2,8.9-4.7,14.5-2.3c2.4,1,5.9,0.3,8.7-0.4c6.6-1.7,12.8-2,18.4,2.7c2.4,2,4.6,2.5,7.8,1.4c2-0.7,4.5,0.6,6.8,0.9
	c4.1,0.5,9.6,2.8,12.1,1c8.7-6.2,16.1-2.2,23.9,0.8c2,0.8,3.5,2.4,5.4,3.6c4.7,2.9,9.4,5.7,15.3,3.3c3.4-1.4,6.1,0,8,3.2
	c0.9,1.6,2.3,2.8,3.5,4.2C926,127.7,926,128.3,926,129z"/>
<path d="M749.7,38c2.6,4.1,5.1,8.2,7.7,12.3c-0.4,0.3-0.8,0.6-1.3,0.8c-2.6-4.1-5.2-8.2-7.9-12.3C748.7,38.6,749.2,38.3,749.7,38z"
	/>
<path d="M757,374c-1.4-0.6-2.7-1.2-4.1-1.7c-5.9-2.1-11.8-4.1-16.9-5.9c1.4-3.4,3.9-6.6,3.6-9.5c-0.3-3-3.2-5.9-5.2-8.7
	c-2.7-4-5.8-7.7-8.3-11.8c-0.6-0.9-0.1-3.5,0.7-4.2c5.4-4.4,9.3-11.1,17.3-11.9c1.1-0.1,2-1.6,3-2.5c1.8-1.5,3.5-3.5,5.6-4.3
	c7.6-2.9,9.7-12.8,3.7-18.2c-1.3-1.2-2.5-2.6-3.8-3.9c-3.8-3.8-7.6-3.9-12.1-1.4c-6.4,3.6-12.2,8.3-20.7,6.4c-5.7-1.2-8.8,4-5.8,8.7
	c2.4,3.8-0.2,5.2-2.7,5.6c-4.9,0.7-10,1.5-14.8,0.7c-18.3-3.2-35.6-9.6-52.5-17.2c-1.3-0.6-3-1-4.3-0.8c-7.8,1.7-15.8,2.6-22.2,8.1
	c-2.1,1.9-5.3,2.6-8,3.7c-11.6,4.7-23,9.7-29.6,21.2c-0.2,0.4-0.4,1.1-0.8,1.2c-5.3,1.5-10.6,3-16,4.5c-2.1,0.6-4.2,0.8-6.3,1.5
	c-3.2,1-6.2,2.6-9.4,3.3c-5,1-10.1,1.6-15.2,2.2c-4.1,0.5-8.3,1.4-12.3,0.8c-12.2-1.7-23.7,0.2-35.2,4.6c-9.2,3.5-18.8,5-28.6,1.8
	c-3.7-1.2-7.8-1.4-11.8-1.5c-8.3-0.4-15.5-3.1-20.1-10.1c-4.7-7-8.7-14.6-13.3-21.7c-1.2-1.9-3.4-3.6-5.5-4.5
	c-8.6-3.9-17.4-7.6-26.1-11.3c-0.8-0.3-1.6-0.6-2.2-1.2c-10.4-11.5-25.2-10.9-38.6-13.8c-9.8-2.1-19.9-2.9-30-3.8
	c-11.6-1-12.4-0.8-17.9,8.5c-2.7,4.6-5,9.4-8.1,13.6c-2.9,3.7-6.8,6.6-10.1,10c-1.1,1.2-2.1,2.7-2.6,4.2
	c-3.3,9.1-12.8,12.1-22.8,7.4c-2.7-1.3-6.4-1.3-9.4-0.6c-13.5,3.2-26.9,7-40.4,10.4c-4.2,1-8.4,2-12.7,2.3c-1.6,0.1-4-1-4.8-2.4
	c-2.3-3.6-5.4-4-9.1-3.6c-1.7,0.2-3.9,0.5-5.2-0.3c-5.7-3.4-11.2-7.1-16.6-11.1c-2.5-1.9-3.1-4.3-0.8-7.3c3.6-4.5,2.2-9-2.8-12
	c-2.9-1.8-5.6-4.1-8.3-6.2c-7-5.4-13.7-11.2-20.9-16.3c-6.7-4.6-7.5-13.7-1-18.7c4.8-3.7,9.8-7.2,14.8-10.6c1.4-1,3.3-1.6,5-1.8
	c10.6-1.2,21.1-2.5,30.1-9c1.6-1.1,3.6-1.6,5.6-2.1c7.1-1.7,14.4-3,21.5-4.8c4.4-1.2,8.6-3.3,13-4.8c3.5-1.2,7-2.9,10.6-3.1
	c4.8-0.4,8.8-1.7,12.9-4.5c5.6-3.9,11.6-6.9,18.9-8.2c7.1-1.2,13.7-5.7,20.2-9.3c12.7-6.9,24.9-14.4,40.6-11.7
	c6,1.1,12.5-0.4,18.8-1.1c15.6-1.8,29.8-8.6,44.5-13.4c6.1-2,12.5-3.5,18.5-5.7c4.9-1.8,9,0.5,12.8,2.4c6.2,3.2,12.1,7,14.8,14.1
	c1,2.6,2.7,5,4.6,7c7.6,7.9,15.2,15.6,23.1,23.2c3.6,3.4,8,6,11.6,9.4c1.8,1.7,3.1,4.2,3.7,6.6c1.6,6.8,2.4,13.7,4.2,20.4
	c0.6,2.1,3,4.8,5,5.3c9.1,2.5,18.6,3.8,27.5,6.8c6.2,2,11.5,6.5,17.5,9.2c8.2,3.6,16.6,6.8,25,9.8c1.8,0.6,4.5,0.3,6.3-0.6
	c6.9-3.8,14.1-7.5,20.3-12.3c5.9-4.5,12-7.5,19.3-9.4c7.2-1.9,13.5-6.6,20.4-9.9c3.8-1.9,7.7-4.1,11.7-4.8c6.7-1.2,12.9-2.7,18.3-7
	c1.3-1,2.8-1.8,4.4-2.4c11.2-4.5,19.4-13.1,28.5-20.5c8.5-6.9,17.2-13.9,29.3-12.2c3.1,0.4,6,2.1,9.1,2.9c3.2,0.8,6.6,1.5,9.9,1.8
	c2.3,0.2,4.6-0.9,6.9-0.7c16.4,1.1,31.8-2.9,46.9-9c5-2.1,26.3,0.8,30.3,4.5c5,4.7,10.8,8.7,11.8,16.7c0.3,2.2,4.8,4.8,7.7,5.5
	c8,1.8,16.2,2.8,24.4,4c2,0.3,4,0.3,6,0.3c4.5-0.1,8.7,0,12.7,3.1c2,1.6,5.7,0.9,8.6,1.2c5.3,0.6,10.7,1.1,16,1.7c0,2.3,0,4.7,0,7
	c-0.6,1.4-1.8,2.8-1.8,4.2c0.4,12.5-7.8,22.4-20,24.9c-6.1,1.2-12.8,2.3-17.8,5.6c-8.1,5.4-14.7,12.6-12.5,24
	c0.5,2.7-0.3,5.6-0.5,9.5c-3.3-2.1-5.3-3.5-7.5-4.6c-2.7-1.3-5.4-2.5-8.2-3.3c-4.4-1.3-9-2.2-13.4-3.6c-5.3-1.7-8.3-0.5-10,4.8
	c-1.9,5.9-3.8,11.7-5,17.7c-0.5,2.5,0,5.7,1.2,8c1.9,3.8,4.9,7,7.2,10.6c0.7,1.1,1.5,3.2,1,3.7c-1,1-2.7,1.8-4.2,1.9
	c-4.3,0.3-8.6,0.1-12.9,0.5c-7,0.6-7.5,0.8-7.4,7.7c0,6.6-3.4,11.9-8.8,12.7c-6.5,1.1-8.5,4.7-10.3,9.6C757.7,374,757.3,374,757,374
	z"/>
<g id="ege_xA0_Görüntü_00000000222139880458701000000006610257664170887843_">
	<g>
		<path d="M74,292c-3.3,0-6.7,0-10,0c-0.3-0.6-0.8-1.1-1-1.7c-4.5-10.6-11.9-13.4-21.7-6.8c-2.6,1.8-6.8,1.2-10.3,1.6
			c-2.2,0.2-4.5,0-6.7,0.1c-3.3,0-6.7,0.7-9.8,0c-3.5-0.8-3.7-3.4-0.8-5.7c3.8-3,7.6-5.5,13.1-4.7c3,0.4,6.2-0.7,9.4-1
			c4.3-0.3,8.6-0.5,12.9-0.6c7.1-0.3,14.3-0.2,21.4-0.9c2.1-0.2,4.6-1.6,5.9-3.3c3.8-4.8,8.5-6.7,14.4-6.4c1,0,2.1-0.4,3.1-0.7
			c-0.1-0.5-0.1-0.9-0.2-1.4c-14.3,0.7-28.7,1.4-43,2c-5.5,0.2-11.1,1-16.3,0c-3.4-0.7-6.4-1.6-9.4,0.3c-3.4,2.2-6.1,0.4-8.8-1.2
			c-0.6-0.4-1-2.9-0.6-3.1c5.6-3.8,9.8-10.2,17.6-10.3c4.6-0.1,9.2,0.1,13.7-0.6c2.3-0.3,4.3-2.2,6.5-3.4c-1.7-1.9-3.2-3.9-5.1-5.6
			c-0.9-0.8-2.5-0.7-3.8-0.9c-2.7-0.4-5.4-0.9-9.1-1.4c2.1-4,4.3-7.2,5.5-10.7c0.9-2.7,1.3-6.1,0.4-8.7c-1.3-4-1-6.3,3.1-7.5
			c2.2-0.6,4.6-0.5,6.9-0.8c8.7-1,15.9-4.1,19.2-12.6c-3.7-2-6.8-4.1-10.3-5.6c-2.3-0.9-5.2-1.8-7.4-1.1c-3.8,1.3-5,0.3-5.8-3.4
			c-1.3-6.1-5.7-7.2-10.8-3.5c-1.6,1.2-4.4,2-6.1,1.4c-5.7-2.1-11.3-4.7-16.7-7.5c-0.6-0.3-0.7-3.5-0.1-3.9
			c3.6-2.5,7.5-4.5,11.2-6.8c5.8-3.4,13-4.6,16-12.4c0.8-2,7-2.4,10.8-2.5c3.9-0.1,4.1,3.6,4.5,6.6c0.2,1.7,0.8,3.4,1.2,5.3
			c2.3-1.7,4.1-2.9,6.7-4.8c0.4,3.2,0.3,5.4,1,7.4c0.4,1.1,2.3,2.5,3,2.3c1.5-0.5,3.7-2,3.7-3.1c0.1-2.7-0.7-5.5-1.4-8.2
			c-1.3-4.5-0.2-7.2,4.2-8.3c6.1-1.4,12.6-0.8,17.8-5.6c1.7-1.5,5.2-1,7.9-1.4c-3-1-5.9-0.5-8.8-0.6c-1.6-0.1-3.1-1.1-4.7-1.8
			c0.7-1.5,1.1-3.5,2.2-4.5c2.6-2.2,5.6-3.8,8.7-5.8c-1-1.5-2.2-3.4-3.4-5.3c-1.6,0.6-3.3,0.6-4-0.2c-2.2-2.8-5.1-5.7-0.1-8.7
			c-4.4-3.9-8.5-5.3-14-3.6c-3.6,1.1-7.8,0.2-12,0.2c32.4-8,64.3-16,96.3-23.9c2,0,4,0,6,0c1,0.2,2.1,0.3,2.9,0.8
			c1.9,1.3,4.5,2.5,5,4.3c0.4,1.4-1.4,4.3-3,5.3c-3.5,2.1-7.5,3.4-11.4,4.9c-3.7,1.5-6.9,3.5-8.9,8.1c2.6,0.2,4.4,0.1,6.1,0.4
			c4.2,0.8,8.6,1.4,12.5,2.9c10.6,4.1,20.7,9.3,31.5,12.7c5,1.6,11,0.3,16.5-0.2c1.3-0.1,3.4-2.3,3.4-3.6c0-7.5,4.9-10.8,10.8-13.4
			c5.5-2.4,10.7-5.3,13.8-11c1.7-3.1,4.4-3.9,8.1-2.6c9.6,3.3,18.3,2.4,27.6-3c5.4-3.1,13.7-3.5,20.1-2.2c9,1.8,17.4,6.5,26.1,9.8
			c12.7,4.9,25.4,8,38.7,1.9c1.3-0.6,3.6,0.1,5,0.9c12.6,7,26.5,11.3,38.1,20.3c5.8,4.6,12.5,8,18.9,11.9c1.7,1,3.9,1.2,5.3,2.4
			c1.6,1.3,3.2,3.1,3.6,4.9c0.6,2.7-1.2,4.1-4.1,4.4c-3,0.3-6.2,0.2-8.8,1.4c-6,2.9-11.6,6.5-17.5,9.7c-5.7,3.1-11.2,6.6-17.2,8.8
			c-14.7,5.3-29.6,10-44.5,14.8c-2.8,0.9-5.8,1.7-8.7,2.1c-12.2,1.6-24.3,4.5-36.9,2.5c-3.9-0.6-8.4,1.4-12.5,2.7
			c-3.8,1.3-7.3,3.3-10.8,5.1c-2.5,1.3-4.9,2.9-7.5,4.1c-7,3.3-13.8,7.9-21.2,9.3c-7.3,1.5-13.7,4.3-19.3,8.4
			c-3.8,2.8-7.3,3.8-11.8,4.1c-3.3,0.2-6.5,1.7-9.7,2.7c-5.4,1.8-10.8,3.9-16.3,5.6c-8.5,2.6-18,3.4-25.5,7.6
			c-7.9,4.4-16.2,7.3-24.4,7.4c-12.5,0.2-19,9.1-27.7,15c-0.8,0.5-1.2,2-1.4,3.1c-0.6,4.7-1.1,9.5-1.4,14.3c-0.2,3-1.5,4.3-4.5,3.4
			c-1.7-0.5-3.9-1.5-5.2-0.9c-8.7,4.2-17.1,8.8-25.7,13.2C74.2,291.7,74.1,291.9,74,292z M91.4,109.6c15.8,2.9,15.8,2.9,18.5-1.5
			C103.8,108.5,98.3,109,91.4,109.6z"/>
	</g>
</g>
<path d="M217,130c-4.3,0-8.7,0-13,0c-17.1-5.9-32.6-16.5-52.1-17.6c2.3-5.1,6-7,10-8.6c3.4-1.4,7-2.3,10.1-4.1
	c1.7-1,3.4-3.6,3.5-5.5c0.1-3.3-2.9-3.8-5.8-4c-12.7-0.9-24.9,2.1-36.7,6.3c-21.3,7.6-43.5,11.3-65.6,15.1c-1.5,0.3-3.1,0.2-5.5,0.3
	c3.6-7,10.3-7.8,15.7-11.3c-7.3-4.7-13-9.1,1.3-11.5c-2.1-0.7-3.2-1-4.4-1.4c1.7-0.6,3.2-0.2,4.6-0.5c4.8-0.7,9.7-1,14.2-2.6
	c3.7-1.2,6.9-3.8,10.1-6.1c2.4-1.8,4.3-4.2,6.6-6.2c1.8-1.6,3.6-3.8,5.7-4.2c9.4-1.7,18.9-2.8,28.4-4.1c5.1-0.7,10.2-1.3,15.3-2
	c-0.1-0.7-0.2-1.4-0.3-2.1c-5.3,0.5-10.7,0.8-16,1.7c-10.4,1.7-20.6,2.7-32-1.6c2-2.5,3.4-6,5.9-7.2c6.6-3.1,13.7-4.9,20.4-7.8
	c3-1.3,5.9-3.4,8.3-5.7c4-3.8,7.2-7.8,13.7-8c4.4-0.1,8.7-2.6,13.4-4.2c0.1,0.3,0.7,1.4,1.6,3.4c2.1-4.3,3.3-7,4.9-10.3
	c-2.8-0.6-5-1.1-7.3-1.7c-1.2-5.1,1.8-8.4,8.8-8.4c4.8,0,9-0.2,13.2-3.1c1.9-1.3,5.1-1,7.7-1.3c6.4-0.6,12.8-1.2,19.3-1.6
	c6.8-0.5,13.5-0.9,20.3-1.1c1.3,0,3,0.8,4,1.7c4,4,8.5,4.2,13.8,3.6c6.5-0.7,13.2-0.4,19.8-0.2c1.5,0.1,2.9,1.7,4.4,2.7
	c-0.9,1.2-2,2.3-2.6,3.7c-0.9,1.9-2.5,4.5-1.8,5.9c1.2,2.5,3.4,5.5,5.9,6.3c12.1,4,24.3,8.2,36.8,10.8s25.3,3.7,38,4.9
	c12.2,1.1,24.3,4.6,36.6,0.7c1.5-0.5,3.3-0.3,5,0c6.2,1,12.6,1.6,18.6,3.5c5,1.6,12.5,0.1,13.3,8.5c0,1,0,2,0,3
	c-2.5,1.9-6,3.3-7.2,5.8c-3.7,7.5-9.9,10.8-17.5,12.6c-2.9,0.7-5.9,1.3-8.6,2.4c-2.1,0.8-4,2-5.8,3.4c-4.3,3.4-8.1,7.4-12.6,10.6
	c-4.2,3-10,4.1-11.6,10.2c-0.2,0.8-1.4,1.6-2.3,1.8c-6.1,1.2-12.8,4.2-18.4,2.8c-14.8-3.5-29.2-8.6-43.5-13.8
	c-8-3-16.3-2.8-22.5,1.2c-9.7,6.2-18.8,6.2-28.9,3c-1.6-0.5-4.7,0.3-5.5,1.6c-4.6,7.4-12,10.6-19.1,14.6c-2.7,1.5-5.5,4.9-5.9,7.8
	C222.9,126.3,220.8,128.5,217,130z M300,75.4c0-0.3,0-0.6,0-1c-3.3-0.8-6.6-1.2-9.8-2.3c-1.5-0.5-2.5-2.2-3.8-3.3
	c1.3-1.1,2.4-2.8,3.9-3.3c8.4-3.2,17-4.8,26-3.1c1.5,0.3,3.1,0.6,4.4,0.3c1-0.3,2.2-1.4,2.5-2.4c0.2-0.6-1-2-1.9-2.5
	c-3.3-2-6.7-3.9-10.1-5.7c-1-0.5-2.2-0.5-3.4-0.6c-8-0.9-16-1.9-24.1-2.7c-8.9-0.9-18.5-4-26.6-1.7c-10.5,3-20.3,0.1-30.3,1
	c-3.8,0.3-8.2,0.4-11.3,2.2c-9,5.1-18.1,9.7-28.4,11.8c-3.9,0.8-7.7,2.2-12.5,3.6c1.9,0.5,2.8,1.1,3.6,0.9c5.4-1.3,9,1,12.5,5.1
	c1.7,2,5.3,3,8.1,3.1c4.6,0.2,9.3-0.7,14.7-1.2c-5.6-1.8-10.3-3.4-15.1-5c3.4-6.4,13.1-11.6,19.1-10.2c1.8,0.4,4.2,2,4.6,3.5
	c0.9,3.5,2.7,4.1,5.8,3.7c4.3-0.4,8.1,0.3,10.6,4.7c1,1.6,3.8,2.9,5.8,3c8.3,0.4,16.6,0.2,24.9,0.2c0.5,0,1.1-0.5,2.1-1
	c-0.9-1.1-2-1.9-2.2-2.8c-0.3-1.4-0.4-3.9,0.2-4.2c1.4-0.7,3.3-0.3,5-0.4c0,1.3,0,2.6,0,3.9c-0.1,1.4-0.3,2.7-0.4,4.1
	c1.4,0.1,2.9,0.2,4.3,0.3c4.3,0.4,8.7,0.9,13,1.3C294.3,74.9,297.2,75.1,300,75.4z"/>
<path d="M77.6,82c-3,0-6,0.2-8.9-0.1c-1.2-0.1-2.2-1.6-3.3-2.4c0.8-1.1,1.5-3,2.6-3.2c7-1.3,14-2.6,21-3.2c1.2-0.1,3.4,2.8,3.7,4.5
	c0.2,1.3-1.9,3.9-3.2,4.2c-3.8,0.8-7.9,0.6-11.8,0.8C77.6,82.4,77.6,82.2,77.6,82z"/>
<g id="ana_xA0_Görüntü_00000147926891592628705950000006383013558393817247_" class="st0">
	
		<image style="display:inline;overflow:visible;enable-background:new    ;" width="1440" height="447" id="ana_xA0_Görüntü" xlink:href="A9B3C8DF.png" >
	</image>
</g>
</svg>
